<mxfile host="65bd71144e">
    <diagram id="_o0pZGUwgl1xbmABMh8O" name="V1">
        <mxGraphModel dx="363" dy="826" grid="1" gridSize="10" guides="1" tooltips="1" connect="1" arrows="1" fold="1" page="1" pageScale="1" pageWidth="850" pageHeight="1100" math="0" shadow="0">
            <root>
                <mxCell id="0"/>
                <mxCell id="1" parent="0"/>
                <mxCell id="2" value="EZElectronics Server" style="verticalAlign=middle;align=center;spacingTop=8;spacingLeft=2;spacingRight=12;shape=cube;size=10;direction=south;fontStyle=1;html=1;labelPosition=center;verticalLabelPosition=middle;" parent="1" vertex="1">
                    <mxGeometry x="335" y="350" width="145" height="50" as="geometry"/>
                </mxCell>
                <mxCell id="9" value="&amp;lt;&amp;lt;deploy&amp;gt;&amp;gt;" style="edgeStyle=none;html=1;exitX=0.5;exitY=1;exitDx=0;exitDy=0;exitPerimeter=0;entryX=0;entryY=0;entryDx=0;entryDy=85;entryPerimeter=0;dashed=1;" parent="1" source="8" target="2" edge="1">
                    <mxGeometry relative="1" as="geometry"/>
                </mxCell>
                <mxCell id="8" value="EZElectronics back-end" style="shape=note2;boundedLbl=1;whiteSpace=wrap;html=1;size=25;verticalAlign=top;align=center;" parent="1" vertex="1">
                    <mxGeometry x="430" y="150" width="160" height="50" as="geometry"/>
                </mxCell>
                <mxCell id="23" value="+ internet" style="edgeStyle=none;html=1;exitX=0;exitY=0;exitDx=0;exitDy=85;exitPerimeter=0;entryX=0;entryY=0;entryDx=50;entryDy=77.5;entryPerimeter=0;endArrow=none;endFill=0;" parent="1" source="10" target="2" edge="1">
                    <mxGeometry relative="1" as="geometry"/>
                </mxCell>
                <mxCell id="10" value="EZElectronics Company PC" style="verticalAlign=middle;align=center;spacingTop=8;spacingLeft=2;spacingRight=12;shape=cube;size=10;direction=south;fontStyle=1;html=1;labelPosition=center;verticalLabelPosition=middle;" parent="1" vertex="1">
                    <mxGeometry x="210" y="460" width="180" height="50" as="geometry"/>
                </mxCell>
                <mxCell id="17" value="+ internet" style="edgeStyle=none;html=1;exitX=0;exitY=0;exitDx=30;exitDy=0;exitPerimeter=0;entryX=0;entryY=0;entryDx=30;entryDy=145;entryPerimeter=0;endArrow=none;endFill=0;" parent="1" source="11" target="2" edge="1">
                    <mxGeometry relative="1" as="geometry"/>
                </mxCell>
                <mxCell id="11" value="User device" style="verticalAlign=middle;align=center;spacingTop=8;spacingLeft=2;spacingRight=12;shape=cube;size=10;direction=south;fontStyle=1;html=1;labelPosition=center;verticalLabelPosition=middle;" parent="1" vertex="1">
                    <mxGeometry x="130" y="350" width="100" height="50" as="geometry"/>
                </mxCell>
                <mxCell id="12" value="&amp;lt;&amp;lt;deploy&amp;gt;&amp;gt;" style="edgeStyle=none;html=1;exitX=0.5;exitY=1;exitDx=0;exitDy=0;exitPerimeter=0;dashed=1;" parent="1" source="13" target="2" edge="1">
                    <mxGeometry relative="1" as="geometry">
                        <mxPoint x="240" y="340" as="targetPoint"/>
                    </mxGeometry>
                </mxCell>
                <mxCell id="13" value="EZElectronics front-end" style="shape=note2;boundedLbl=1;whiteSpace=wrap;html=1;size=25;verticalAlign=top;align=center;" parent="1" vertex="1">
                    <mxGeometry x="240" y="150" width="160" height="50" as="geometry"/>
                </mxCell>
                <mxCell id="14" value="&amp;lt;&amp;lt;deploy&amp;gt;&amp;gt;" style="edgeStyle=none;html=1;exitX=0.5;exitY=1;exitDx=0;exitDy=0;exitPerimeter=0;dashed=1;" parent="1" source="15" target="2" edge="1">
                    <mxGeometry relative="1" as="geometry">
                        <mxPoint x="620" y="340" as="targetPoint"/>
                    </mxGeometry>
                </mxCell>
                <mxCell id="15" value="EZElectronics Database" style="shape=note2;boundedLbl=1;whiteSpace=wrap;html=1;size=25;verticalAlign=top;align=center;" parent="1" vertex="1">
                    <mxGeometry x="620" y="150" width="160" height="50" as="geometry"/>
                </mxCell>
                <mxCell id="19" value="&amp;lt;&amp;lt;deploy&amp;gt;&amp;gt;" style="edgeStyle=none;html=1;exitX=0.5;exitY=1;exitDx=0;exitDy=0;exitPerimeter=0;endArrow=classic;endFill=1;dashed=1;" parent="1" source="18" target="11" edge="1">
                    <mxGeometry relative="1" as="geometry"/>
                </mxCell>
                <mxCell id="18" value="Browser" style="shape=note2;boundedLbl=1;whiteSpace=wrap;html=1;size=25;verticalAlign=top;align=center;" parent="1" vertex="1">
                    <mxGeometry x="20" y="240" width="70" height="50" as="geometry"/>
                </mxCell>
                <mxCell id="21" value="&amp;lt;&amp;lt;deploy&amp;gt;&amp;gt;" style="edgeStyle=none;html=1;exitX=0.5;exitY=1;exitDx=0;exitDy=0;exitPerimeter=0;endArrow=classic;endFill=1;dashed=1;entryX=0;entryY=0;entryDx=30;entryDy=180;entryPerimeter=0;" parent="1" source="22" target="10" edge="1">
                    <mxGeometry relative="1" as="geometry">
                        <mxPoint x="209.99529411764706" y="560" as="targetPoint"/>
                    </mxGeometry>
                </mxCell>
                <mxCell id="22" value="Browser" style="shape=note2;boundedLbl=1;whiteSpace=wrap;html=1;size=25;verticalAlign=top;align=center;" parent="1" vertex="1">
                    <mxGeometry x="19.999999999999986" y="470" width="70" height="50" as="geometry"/>
                </mxCell>
            </root>
        </mxGraphModel>
    </diagram>
    <diagram name="V2" id="Ylx1NX2Jm7Vtsft_91aR">
        <mxGraphModel dx="1632" dy="533" grid="1" gridSize="10" guides="1" tooltips="1" connect="1" arrows="1" fold="1" page="1" pageScale="1" pageWidth="850" pageHeight="1100" math="0" shadow="0">
            <root>
                <mxCell id="zCgyhVI-92qGiomNfvr6-0"/>
                <mxCell id="zCgyhVI-92qGiomNfvr6-1" parent="zCgyhVI-92qGiomNfvr6-0"/>
                <mxCell id="oEWqBifbYakwjZcG_OGu-0" value="EZElectronics Server" style="verticalAlign=middle;align=center;spacingTop=8;spacingLeft=2;spacingRight=12;shape=cube;size=10;direction=south;fontStyle=1;html=1;labelPosition=center;verticalLabelPosition=middle;" vertex="1" parent="zCgyhVI-92qGiomNfvr6-1">
                    <mxGeometry x="315" y="240" width="145" height="50" as="geometry"/>
                </mxCell>
                <mxCell id="oEWqBifbYakwjZcG_OGu-1" value="&amp;lt;&amp;lt;deploy&amp;gt;&amp;gt;" style="edgeStyle=none;html=1;exitX=0.5;exitY=1;exitDx=0;exitDy=0;exitPerimeter=0;entryX=0;entryY=0;entryDx=0;entryDy=85;entryPerimeter=0;dashed=1;" edge="1" parent="zCgyhVI-92qGiomNfvr6-1" source="oEWqBifbYakwjZcG_OGu-2" target="oEWqBifbYakwjZcG_OGu-0">
                    <mxGeometry relative="1" as="geometry"/>
                </mxCell>
                <mxCell id="oEWqBifbYakwjZcG_OGu-2" value="EZElectronics back-end" style="shape=note2;boundedLbl=1;whiteSpace=wrap;html=1;size=25;verticalAlign=top;align=center;" vertex="1" parent="zCgyhVI-92qGiomNfvr6-1">
                    <mxGeometry x="410" y="40" width="160" height="50" as="geometry"/>
                </mxCell>
                <mxCell id="oEWqBifbYakwjZcG_OGu-3" value="+ internet" style="edgeStyle=none;html=1;exitX=0;exitY=0;exitDx=0;exitDy=85;exitPerimeter=0;entryX=0;entryY=0;entryDx=50;entryDy=77.5;entryPerimeter=0;endArrow=none;endFill=0;" edge="1" parent="zCgyhVI-92qGiomNfvr6-1" source="oEWqBifbYakwjZcG_OGu-4" target="oEWqBifbYakwjZcG_OGu-0">
                    <mxGeometry relative="1" as="geometry"/>
                </mxCell>
                <mxCell id="oEWqBifbYakwjZcG_OGu-4" value="EZElectronics Company PC" style="verticalAlign=middle;align=center;spacingTop=8;spacingLeft=2;spacingRight=12;shape=cube;size=10;direction=south;fontStyle=1;html=1;labelPosition=center;verticalLabelPosition=middle;" vertex="1" parent="zCgyhVI-92qGiomNfvr6-1">
                    <mxGeometry x="90" y="380" width="180" height="50" as="geometry"/>
                </mxCell>
                <mxCell id="oEWqBifbYakwjZcG_OGu-5" value="+ internet" style="edgeStyle=none;html=1;exitX=0;exitY=0;exitDx=30;exitDy=0;exitPerimeter=0;entryX=0;entryY=0;entryDx=30;entryDy=145;entryPerimeter=0;endArrow=none;endFill=0;" edge="1" parent="zCgyhVI-92qGiomNfvr6-1" source="oEWqBifbYakwjZcG_OGu-6" target="oEWqBifbYakwjZcG_OGu-0">
                    <mxGeometry relative="1" as="geometry"/>
                </mxCell>
                <mxCell id="oEWqBifbYakwjZcG_OGu-6" value="User device" style="verticalAlign=middle;align=center;spacingTop=8;spacingLeft=2;spacingRight=12;shape=cube;size=10;direction=south;fontStyle=1;html=1;labelPosition=center;verticalLabelPosition=middle;" vertex="1" parent="zCgyhVI-92qGiomNfvr6-1">
                    <mxGeometry x="110" y="240" width="100" height="50" as="geometry"/>
                </mxCell>
                <mxCell id="oEWqBifbYakwjZcG_OGu-7" value="&amp;lt;&amp;lt;deploy&amp;gt;&amp;gt;" style="edgeStyle=none;html=1;exitX=0.5;exitY=1;exitDx=0;exitDy=0;exitPerimeter=0;dashed=1;" edge="1" parent="zCgyhVI-92qGiomNfvr6-1" source="oEWqBifbYakwjZcG_OGu-8" target="oEWqBifbYakwjZcG_OGu-0">
                    <mxGeometry relative="1" as="geometry">
                        <mxPoint x="220" y="230" as="targetPoint"/>
                    </mxGeometry>
                </mxCell>
                <mxCell id="oEWqBifbYakwjZcG_OGu-8" value="EZElectronics front-end" style="shape=note2;boundedLbl=1;whiteSpace=wrap;html=1;size=25;verticalAlign=top;align=center;" vertex="1" parent="zCgyhVI-92qGiomNfvr6-1">
                    <mxGeometry x="220" y="40" width="160" height="50" as="geometry"/>
                </mxCell>
                <mxCell id="oEWqBifbYakwjZcG_OGu-9" value="&amp;lt;&amp;lt;deploy&amp;gt;&amp;gt;" style="edgeStyle=none;html=1;exitX=0.5;exitY=1;exitDx=0;exitDy=0;exitPerimeter=0;dashed=1;" edge="1" parent="zCgyhVI-92qGiomNfvr6-1" source="oEWqBifbYakwjZcG_OGu-10" target="oEWqBifbYakwjZcG_OGu-0">
                    <mxGeometry relative="1" as="geometry">
                        <mxPoint x="600" y="230" as="targetPoint"/>
                    </mxGeometry>
                </mxCell>
                <mxCell id="oEWqBifbYakwjZcG_OGu-10" value="EZElectronics Database" style="shape=note2;boundedLbl=1;whiteSpace=wrap;html=1;size=25;verticalAlign=top;align=center;" vertex="1" parent="zCgyhVI-92qGiomNfvr6-1">
                    <mxGeometry x="600" y="40" width="160" height="50" as="geometry"/>
                </mxCell>
                <mxCell id="oEWqBifbYakwjZcG_OGu-11" value="&amp;lt;&amp;lt;deploy&amp;gt;&amp;gt;" style="edgeStyle=none;html=1;exitX=0.5;exitY=1;exitDx=0;exitDy=0;exitPerimeter=0;endArrow=classic;endFill=1;dashed=1;" edge="1" parent="zCgyhVI-92qGiomNfvr6-1" source="oEWqBifbYakwjZcG_OGu-12" target="oEWqBifbYakwjZcG_OGu-6">
                    <mxGeometry relative="1" as="geometry"/>
                </mxCell>
                <mxCell id="oEWqBifbYakwjZcG_OGu-12" value="Browser" style="shape=note2;boundedLbl=1;whiteSpace=wrap;html=1;size=25;verticalAlign=top;align=center;" vertex="1" parent="zCgyhVI-92qGiomNfvr6-1">
                    <mxGeometry x="-80" y="280" width="70" height="50" as="geometry"/>
                </mxCell>
                <mxCell id="oEWqBifbYakwjZcG_OGu-13" value="&amp;lt;&amp;lt;deploy&amp;gt;&amp;gt;" style="edgeStyle=none;html=1;exitX=0.5;exitY=1;exitDx=0;exitDy=0;exitPerimeter=0;endArrow=classic;endFill=1;dashed=1;entryX=0;entryY=0;entryDx=30;entryDy=180;entryPerimeter=0;" edge="1" parent="zCgyhVI-92qGiomNfvr6-1" source="oEWqBifbYakwjZcG_OGu-14" target="oEWqBifbYakwjZcG_OGu-4">
                    <mxGeometry x="0.2941" y="-11" relative="1" as="geometry">
                        <mxPoint x="189.99529411764706" y="450" as="targetPoint"/>
                        <mxPoint as="offset"/>
                    </mxGeometry>
                </mxCell>
                <mxCell id="oEWqBifbYakwjZcG_OGu-14" value="Browser" style="shape=note2;boundedLbl=1;whiteSpace=wrap;html=1;size=25;verticalAlign=top;align=center;" vertex="1" parent="zCgyhVI-92qGiomNfvr6-1">
                    <mxGeometry x="-50.000000000000014" y="450" width="70" height="50" as="geometry"/>
                </mxCell>
                <mxCell id="oEWqBifbYakwjZcG_OGu-19" value="&amp;lt;&amp;lt;deploy&amp;gt;&amp;gt;" style="edgeStyle=none;html=1;exitX=0.5;exitY=1;exitDx=0;exitDy=0;exitPerimeter=0;endArrow=classic;endFill=1;dashed=1;entryX=0.573;entryY=-0.027;entryDx=0;entryDy=0;entryPerimeter=0;" edge="1" parent="zCgyhVI-92qGiomNfvr6-1">
                    <mxGeometry x="0.1745" y="-1" relative="1" as="geometry">
                        <mxPoint x="719.5899999999997" y="228.64999999999986" as="targetPoint"/>
                        <mxPoint as="offset"/>
                    </mxGeometry>
                </mxCell>
                <mxCell id="oEWqBifbYakwjZcG_OGu-28" value="Admin" style="verticalAlign=middle;align=center;spacingTop=8;spacingLeft=2;spacingRight=12;shape=cube;size=10;direction=south;fontStyle=1;html=1;labelPosition=center;verticalLabelPosition=middle;" vertex="1" parent="zCgyhVI-92qGiomNfvr6-1">
                    <mxGeometry x="410" y="410" width="80" height="40" as="geometry"/>
                </mxCell>
                <mxCell id="oEWqBifbYakwjZcG_OGu-29" value="+ LAN" style="edgeStyle=none;html=1;endArrow=none;endFill=0;exitX=1.133;exitY=0.287;exitDx=0;exitDy=0;exitPerimeter=0;entryX=0;entryY=0;entryDx=0;entryDy=35;entryPerimeter=0;" edge="1" parent="zCgyhVI-92qGiomNfvr6-1" source="oEWqBifbYakwjZcG_OGu-0" target="oEWqBifbYakwjZcG_OGu-28">
                    <mxGeometry relative="1" as="geometry">
                        <mxPoint x="450" y="300" as="sourcePoint"/>
                        <mxPoint x="410" y="400" as="targetPoint"/>
                    </mxGeometry>
                </mxCell>
                <mxCell id="oEWqBifbYakwjZcG_OGu-30" value="Command Line Interface" style="shape=note2;boundedLbl=1;whiteSpace=wrap;html=1;size=25;verticalAlign=top;align=center;" vertex="1" parent="zCgyhVI-92qGiomNfvr6-1">
                    <mxGeometry x="355" y="540" width="90" height="70" as="geometry"/>
                </mxCell>
                <mxCell id="oEWqBifbYakwjZcG_OGu-31" value="&amp;lt;&amp;lt;deploy&amp;gt;&amp;gt;" style="edgeStyle=none;html=1;endArrow=classic;endFill=1;dashed=1;exitX=0.171;exitY=-0.112;exitDx=0;exitDy=0;exitPerimeter=0;entryX=1.022;entryY=0.384;entryDx=0;entryDy=0;entryPerimeter=0;" edge="1" parent="zCgyhVI-92qGiomNfvr6-1" source="oEWqBifbYakwjZcG_OGu-30" target="oEWqBifbYakwjZcG_OGu-28">
                    <mxGeometry relative="1" as="geometry">
                        <mxPoint x="480" y="480" as="targetPoint"/>
                        <mxPoint x="257" y="637" as="sourcePoint"/>
                        <Array as="points"/>
                    </mxGeometry>
                </mxCell>
                <mxCell id="kZ3ZsbsTraIKpAJ1IWw1-1" value="+ internet" style="edgeStyle=none;html=1;exitX=0;exitY=0;exitDx=50;exitDy=10;exitPerimeter=0;entryX=0;entryY=0;entryDx=5;entryDy=140;entryPerimeter=0;endArrow=none;endFill=0;" edge="1" parent="zCgyhVI-92qGiomNfvr6-1" source="kZ3ZsbsTraIKpAJ1IWw1-0" target="oEWqBifbYakwjZcG_OGu-0">
                    <mxGeometry relative="1" as="geometry"/>
                </mxCell>
                <mxCell id="kZ3ZsbsTraIKpAJ1IWw1-0" value="Payment Service Server" style="verticalAlign=middle;align=center;spacingTop=8;spacingLeft=2;spacingRight=12;shape=cube;size=10;direction=south;fontStyle=1;html=1;labelPosition=center;verticalLabelPosition=middle;" vertex="1" parent="zCgyhVI-92qGiomNfvr6-1">
                    <mxGeometry x="110" y="120" width="160" height="50" as="geometry"/>
                </mxCell>
                <mxCell id="YUl917xloRWfn7LbD_yy-0" value="Admins can manage the system trough CLI from a device that it's separate from the Company PC" style="shape=note2;boundedLbl=1;whiteSpace=wrap;html=1;size=25;verticalAlign=top;align=center;fillColor=#e3c800;fontColor=#000000;strokeColor=#B09500;" vertex="1" parent="zCgyhVI-92qGiomNfvr6-1">
                    <mxGeometry x="500" y="270" width="170" height="100" as="geometry"/>
                </mxCell>
            </root>
        </mxGraphModel>
    </diagram>
</mxfile>
